<?xml version="1.0" encoding="utf-8"?>
<!-- Generator: Adobe Illustrator 23.0.1, SVG Export Plug-In . SVG Version: 6.00 Build 0)  -->
<svg version="1.1" id="Calque_1" xmlns="http://www.w3.org/2000/svg" xmlns:xlink="http://www.w3.org/1999/xlink" x="0px" y="0px"
	 viewBox="0 0 173 58" style="enable-background:new 0 0 173 58;" xml:space="preserve">
<style type="text/css">
	.st0{fill:#1D1D1B;}
	.st1{fill:none;stroke:#A0AAB7;stroke-width:2;stroke-miterlimit:10;}
</style>
<path id="lettre-r" class="st0" d="M18.7,25.6c-2.3,0-3.5,1.8-3.5,5.4v7h-2.4V23.5h2.4v2.8c0.7-2,2-3,3.8-3c0.6,0,1.1,0.1,1.7,0.3
	l-0.1,2.3C19.9,25.7,19.3,25.6,18.7,25.6z"/>
<path id="lettre-e-1" class="st0" d="M29.3,36.4c2,0,3.1-0.9,3.4-2.6h2.4c-0.2,1.5-0.9,2.6-1.9,3.4c-1.1,0.8-2.4,1.2-3.9,1.2
	c-1.9,0-3.5-0.7-4.7-2.1c-1.2-1.4-1.8-3.2-1.8-5.5c0-2.3,0.6-4.1,1.8-5.5s2.8-2.1,4.9-2.1c2,0,3.5,0.8,4.5,2.4c1,1.6,1.3,3.5,1,5.7
	h-9.9c0,1.5,0.4,2.7,1.1,3.7C27,35.9,28,36.4,29.3,36.4z M31,25.4c-0.5-0.2-1-0.4-1.7-0.4c-1.2,0-2.2,0.4-2.9,1.3
	c-0.7,0.8-1.1,1.9-1.3,3.1h7.7C32.9,27.4,32.3,26.1,31,25.4z"/>
<path id="lettre-m" class="st0" d="M42.2,26.3c0.9-2.1,2.6-3.1,4.9-3.1c1.2,0,2.3,0.3,3.1,0.9c0.8,0.6,1.5,1.5,1.8,2.6
	c0.9-2.3,2.6-3.5,5-3.5c1.7,0,3.1,0.6,4,1.7c0.9,1.1,1.4,2.7,1.4,4.6V38h-2.4v-8.5c0-1.4-0.3-2.4-1-3.1c-0.7-0.7-1.6-1.1-2.8-1.1
	c-1.2,0-2.2,0.5-2.9,1.5c-0.7,1-1,2.4-1,4.2v7h-2.4v-8.5c0-1.4-0.3-2.4-1-3.1c-0.7-0.7-1.6-1.1-2.8-1.1c-1.2,0-2.2,0.5-2.9,1.5
	c-0.7,1-1.1,2.4-1.2,4.1V38h-2.4V23.5h2.1L42.2,26.3z"/>
<path id="lettre-u" class="st0" d="M78,35.1c-1,2.1-2.6,3.1-4.8,3.1c-1.6,0-2.9-0.5-3.9-1.4c-1-0.9-1.5-2.3-1.5-4.2v-9.2h2.4v9
	c0,2.4,1.1,3.7,3.4,3.7c1.3,0,2.4-0.5,3.2-1.5c0.8-1,1.2-2.3,1.3-3.9v-7.3h2.4V38H78V35.1z"/>
<path id="lettre-e-2" class="st0" d="M91.5,36.4c2,0,3.1-0.9,3.4-2.6h2.4c-0.2,1.5-0.9,2.6-1.9,3.4c-1.1,0.8-2.4,1.2-3.9,1.2
	c-1.9,0-3.5-0.7-4.7-2.1c-1.2-1.4-1.8-3.2-1.8-5.5c0-2.3,0.6-4.1,1.8-5.5c1.2-1.4,2.8-2.1,4.9-2.1s3.5,0.8,4.5,2.4
	c1,1.6,1.3,3.5,1,5.7h-9.9c0,1.5,0.4,2.7,1.1,3.7C89.1,35.9,90.1,36.4,91.5,36.4z M93.2,25.4c-0.5-0.2-1-0.4-1.7-0.4
	c-1.2,0-2.2,0.4-2.9,1.3c-0.7,0.8-1.1,1.9-1.3,3.1h7.7C95.1,27.4,94.4,26.1,93.2,25.4z"/>
<path id="lettre-point" class="st0" d="M101.7,38.3c-0.5,0-0.9-0.2-1.3-0.5c-0.3-0.3-0.5-0.7-0.5-1.2c0-0.5,0.2-0.9,0.5-1.2
	c0.3-0.3,0.8-0.5,1.3-0.5s0.9,0.2,1.3,0.5c0.3,0.3,0.5,0.7,0.5,1.2c0,0.5-0.2,0.9-0.5,1.2C102.6,38.1,102.2,38.3,101.7,38.3z"/>
<path id="lettre-n" class="st0" d="M109.8,26.3c0.9-2.1,2.6-3.1,4.9-3.1c1.7,0,3,0.6,4,1.7c1,1.1,1.4,2.7,1.4,4.6V38h-2.4v-8.5
	c0-1.4-0.3-2.4-1-3.1c-0.7-0.7-1.6-1.1-2.8-1.1c-1.2,0-2.2,0.5-2.9,1.5c-0.7,1-1.1,2.4-1.2,4.1V38h-2.4V23.5h2.1L109.8,26.3z"/>
<path id="lettre-e-3" class="st0" d="M130.7,36.4c2,0,3.1-0.9,3.4-2.6h2.4c-0.2,1.5-0.9,2.6-1.9,3.4c-1.1,0.8-2.4,1.2-3.9,1.2
	c-1.9,0-3.5-0.7-4.7-2.1c-1.2-1.4-1.8-3.2-1.8-5.5c0-2.3,0.6-4.1,1.8-5.5c1.2-1.4,2.8-2.1,4.9-2.1s3.5,0.8,4.5,2.4
	c1,1.6,1.3,3.5,1,5.7h-9.9c0,1.5,0.4,2.7,1.1,3.7C128.4,35.9,129.4,36.4,130.7,36.4z M132.4,25.4c-0.5-0.2-1-0.4-1.7-0.4
	c-1.2,0-2.2,0.4-2.9,1.3c-0.7,0.8-1.1,1.9-1.3,3.1h7.7C134.3,27.4,133.7,26.1,132.4,25.4z"/>
<path id="lettre-t" class="st0" d="M148.8,37.6c-1.7,0.8-3.3,1-4.7,0.5c-1-0.3-1.8-1-2.2-2c-0.2-0.5-0.3-1.1-0.3-1.8v-8.9h-2.3v-1.8
	h2.3v-4h2.4v4h4.5v1.8h-4.5v8.9c0,1.5,0.7,2.2,2.1,2.2c0.7,0,1.6-0.2,2.5-0.5L148.8,37.6z"/>
<line id="trait" class="st1" x1="156.6" y1="8.8" x2="156.6" y2="49.2"/>
</svg>
